<svg xmlns="http://www.w3.org/2000/svg" width="840" height="790" viewBox="0 0 840 790">
<rect width="100%" height="100%" fill="#fbfaf7"/>
<text x="36" y="44" font-family="Georgia, serif" font-size="24" fill="#3f352b">Dessert Builder SVG Icons</text>
<text x="36" y="66" font-family="Arial, sans-serif" font-size="12" fill="#8d8172">Custom line icons preview / stroke 1.5 / currentColor style</text>
<g transform="translate(24,92)">
<rect x="0" y="0" width="162" height="126" rx="18" fill="#fffdf9" stroke="#e5ded3"/>
<circle cx="81" cy="50" r="32" fill="#fbf5ea" stroke="#e3d4bf"/>
<g transform="translate(57,26) scale(2)" fill="none" stroke="#9a7442" stroke-width="1.5" stroke-linecap="round" stroke-linejoin="round">
<path d="M5 12.5h14" />
<path d="M6.5 12.5l1.2 5h8.6l1.2-5" />
<path d="M8 12.5c.5-2.7 2-4.2 4-4.2s3.5 1.5 4 4.2" />
<path d="M9 8.5c.4-1.4 1.5-2.3 3-2.3s2.6.9 3 2.3" />
<path d="M8 17.5h8" />
</g>
<text x="81" y="106" text-anchor="middle" font-family="Arial, sans-serif" font-size="13" fill="#3f352b">Tart</text>
</g>
<g transform="translate(234,92)">
<rect x="0" y="0" width="162" height="126" rx="18" fill="#fffdf9" stroke="#e5ded3"/>
<circle cx="81" cy="50" r="32" fill="#fbf5ea" stroke="#e3d4bf"/>
<g transform="translate(57,26) scale(2)" fill="none" stroke="#9a7442" stroke-width="1.5" stroke-linecap="round" stroke-linejoin="round">
<path d="M8 7.5h8" />
<path d="M7 10.5c.3-2 1.4-3 5-3s4.7 1 5 3" />
<path d="M6.5 10.5h11l-1.2 7H7.7l-1.2-7Z" />
<path d="M8 17.5h8" />
<path d="M10 5.5c.5-.7 1.2-1 2-1s1.5.3 2 1" />
</g>
<text x="81" y="106" text-anchor="middle" font-family="Arial, sans-serif" font-size="13" fill="#3f352b">Pudding</text>
</g>
<g transform="translate(444,92)">
<rect x="0" y="0" width="162" height="126" rx="18" fill="#fffdf9" stroke="#e5ded3"/>
<circle cx="81" cy="50" r="32" fill="#fbf5ea" stroke="#e3d4bf"/>
<g transform="translate(57,26) scale(2)" fill="none" stroke="#9a7442" stroke-width="1.5" stroke-linecap="round" stroke-linejoin="round">
<path d="M8 16.5h8" />
<path d="M7.5 16.5c0-4.7 2-8 4.5-8s4.5 3.3 4.5 8" />
<path d="M9 10.5c.8-.9 1.8-1.4 3-1.4s2.2.5 3 1.4" />
<path d="M10 7.5c.4-.7 1.1-1.2 2-1.2s1.6.5 2 1.2" />
</g>
<text x="81" y="106" text-anchor="middle" font-family="Arial, sans-serif" font-size="13" fill="#3f352b">Mousse</text>
</g>
<g transform="translate(654,92)">
<rect x="0" y="0" width="162" height="126" rx="18" fill="#fffdf9" stroke="#e5ded3"/>
<circle cx="81" cy="50" r="32" fill="#fbf5ea" stroke="#e3d4bf"/>
<g transform="translate(57,26) scale(2)" fill="none" stroke="#9a7442" stroke-width="1.5" stroke-linecap="round" stroke-linejoin="round">
<path d="M5 8h14" />
<path d="M6 11h12" />
<path d="M5 14h14" />
<path d="M6 17h12" />
<path d="M7 8l1-2h8l1 2" />
<path d="M8 11c.8.5 1.6.5 2.4 0" />
<path d="M13.6 11c.8.5 1.6.5 2.4 0" />
</g>
<text x="81" y="106" text-anchor="middle" font-family="Arial, sans-serif" font-size="13" fill="#3f352b">MilleFeuille</text>
</g>
<g transform="translate(24,272)">
<rect x="0" y="0" width="162" height="126" rx="18" fill="#fffdf9" stroke="#e5ded3"/>
<circle cx="81" cy="50" r="32" fill="#fbf5ea" stroke="#e3d4bf"/>
<g transform="translate(57,26) scale(2)" fill="none" stroke="#9a7442" stroke-width="1.5" stroke-linecap="round" stroke-linejoin="round">
<path d="M8 9h8" />
<path d="M9 9l1 8h4l1-8" />
<path d="M10 17h4" />
<path d="M12 17v2.5" />
<path d="M9.5 20h5" />
<path d="M9 7c.8-1.4 1.8-2 3-2s2.2.6 3 2" />
<path d="M11.5 4.5c0-1 .7-1.5 1.5-1.5" />
</g>
<text x="81" y="106" text-anchor="middle" font-family="Arial, sans-serif" font-size="13" fill="#3f352b">Parfait</text>
</g>
<g transform="translate(234,272)">
<rect x="0" y="0" width="162" height="126" rx="18" fill="#fffdf9" stroke="#e5ded3"/>
<circle cx="81" cy="50" r="32" fill="#fbf5ea" stroke="#e3d4bf"/>
<g transform="translate(57,26) scale(2)" fill="none" stroke="#9a7442" stroke-width="1.5" stroke-linecap="round" stroke-linejoin="round">
<path d="M7 7l4 4-3 6" />
<path d="M13 5l-2 6 5 6" />
<path d="M5 14l3-1" />
<path d="M16 10l3-2" />
<path d="M15 18l3 1" />
</g>
<text x="81" y="106" text-anchor="middle" font-family="Arial, sans-serif" font-size="13" fill="#3f352b">Crispy</text>
</g>
<g transform="translate(444,272)">
<rect x="0" y="0" width="162" height="126" rx="18" fill="#fffdf9" stroke="#e5ded3"/>
<circle cx="81" cy="50" r="32" fill="#fbf5ea" stroke="#e3d4bf"/>
<g transform="translate(57,26) scale(2)" fill="none" stroke="#9a7442" stroke-width="1.5" stroke-linecap="round" stroke-linejoin="round">
<path d="M4 14c3-4 5-4 8 0s5 4 8 0" />
<path d="M4 10c3-4 5-4 8 0s5 4 8 0" />
</g>
<text x="81" y="106" text-anchor="middle" font-family="Arial, sans-serif" font-size="13" fill="#3f352b">Smooth</text>
</g>
<g transform="translate(654,272)">
<rect x="0" y="0" width="162" height="126" rx="18" fill="#fffdf9" stroke="#e5ded3"/>
<circle cx="81" cy="50" r="32" fill="#fbf5ea" stroke="#e3d4bf"/>
<g transform="translate(57,26) scale(2)" fill="none" stroke="#9a7442" stroke-width="1.5" stroke-linecap="round" stroke-linejoin="round">
<path d="M7.5 16.5h8.5a3 3 0 0 0 .5-6 4.5 4.5 0 0 0-8.7-1.2A3.7 3.7 0 0 0 7.5 16.5Z" />
<path d="M9 13h.01" />
<path d="M12 12h.01" />
<path d="M15 13h.01" />
</g>
<text x="81" y="106" text-anchor="middle" font-family="Arial, sans-serif" font-size="13" fill="#3f352b">Fluffy</text>
</g>
<g transform="translate(24,452)">
<rect x="0" y="0" width="162" height="126" rx="18" fill="#fffdf9" stroke="#e5ded3"/>
<circle cx="81" cy="50" r="32" fill="#fbf5ea" stroke="#e3d4bf"/>
<g transform="translate(57,26) scale(2)" fill="none" stroke="#9a7442" stroke-width="1.5" stroke-linecap="round" stroke-linejoin="round">
<path d="M5 8h14" />
<path d="M6 8c0 5 3 4 3 8" />
<path d="M12 8c0 3 2 3 2 6" />
<path d="M18 8c0 4-3 4-3 8" />
<path d="M8 18h8" />
</g>
<text x="81" y="106" text-anchor="middle" font-family="Arial, sans-serif" font-size="13" fill="#3f352b">Melty</text>
</g>
<g transform="translate(234,452)">
<rect x="0" y="0" width="162" height="126" rx="18" fill="#fffdf9" stroke="#e5ded3"/>
<circle cx="81" cy="50" r="32" fill="#fbf5ea" stroke="#e3d4bf"/>
<g transform="translate(57,26) scale(2)" fill="none" stroke="#9a7442" stroke-width="1.5" stroke-linecap="round" stroke-linejoin="round">
<path d="M7 7h.01" />
<path d="M12 5h.01" />
<path d="M17 8h.01" />
<path d="M9 13h.01" />
<path d="M15 14h.01" />
<path d="M11 19h.01" />
<path d="M18 18h.01" />
<path d="M6 17h.01" />
</g>
<text x="81" y="106" text-anchor="middle" font-family="Arial, sans-serif" font-size="13" fill="#3f352b">Crunchy</text>
</g>
<g transform="translate(444,452)">
<rect x="0" y="0" width="162" height="126" rx="18" fill="#fffdf9" stroke="#e5ded3"/>
<circle cx="81" cy="50" r="32" fill="#fbf5ea" stroke="#e3d4bf"/>
<g transform="translate(57,26) scale(2)" fill="none" stroke="#9a7442" stroke-width="1.5" stroke-linecap="round" stroke-linejoin="round">
<path d="M12 4s5 5.2 5 9a5 5 0 0 1-10 0c0-3.8 5-9 5-9Z" />
<path d="M9.5 14.5c.7 1.2 1.7 1.8 3 1.8" />
</g>
<text x="81" y="106" text-anchor="middle" font-family="Arial, sans-serif" font-size="13" fill="#3f352b">Moist</text>
</g>
<g transform="translate(654,452)">
<rect x="0" y="0" width="162" height="126" rx="18" fill="#fffdf9" stroke="#e5ded3"/>
<circle cx="81" cy="50" r="32" fill="#fbf5ea" stroke="#e3d4bf"/>
<g transform="translate(57,26) scale(2)" fill="none" stroke="#9a7442" stroke-width="1.5" stroke-linecap="round" stroke-linejoin="round">
<path d="M12 3v18" />
<path d="M4.5 7.5l15 9" />
<path d="M19.5 7.5l-15 9" />
<path d="M8.5 5.5L12 9l3.5-3.5" />
<path d="M8.5 18.5L12 15l3.5 3.5" />
</g>
<text x="81" y="106" text-anchor="middle" font-family="Arial, sans-serif" font-size="13" fill="#3f352b">Cold</text>
</g>
<g transform="translate(24,632)">
<rect x="0" y="0" width="162" height="126" rx="18" fill="#fffdf9" stroke="#e5ded3"/>
<circle cx="81" cy="50" r="32" fill="#fbf5ea" stroke="#e3d4bf"/>
<g transform="translate(57,26) scale(2)" fill="none" stroke="#9a7442" stroke-width="1.5" stroke-linecap="round" stroke-linejoin="round">
<circle cx="12" cy="12" r="5" />
<path d="M4 12h3" />
<path d="M17 12h3" />
</g>
<text x="81" y="106" text-anchor="middle" font-family="Arial, sans-serif" font-size="13" fill="#3f352b">Room Temp</text>
</g>
<g transform="translate(234,632)">
<rect x="0" y="0" width="162" height="126" rx="18" fill="#fffdf9" stroke="#e5ded3"/>
<circle cx="81" cy="50" r="32" fill="#fbf5ea" stroke="#e3d4bf"/>
<g transform="translate(57,26) scale(2)" fill="none" stroke="#9a7442" stroke-width="1.5" stroke-linecap="round" stroke-linejoin="round">
<path d="M7 17h10" />
<path d="M8 13c2-2 2-4 0-6" />
<path d="M12 13c2-2 2-4 0-6" />
<path d="M16 13c2-2 2-4 0-6" />
</g>
<text x="81" y="106" text-anchor="middle" font-family="Arial, sans-serif" font-size="13" fill="#3f352b">Warm</text>
</g>
<g transform="translate(444,632)">
<rect x="0" y="0" width="162" height="126" rx="18" fill="#fffdf9" stroke="#e5ded3"/>
<circle cx="81" cy="50" r="32" fill="#fbf5ea" stroke="#e3d4bf"/>
<g transform="translate(57,26) scale(2)" fill="none" stroke="#9a7442" stroke-width="1.5" stroke-linecap="round" stroke-linejoin="round">
<path d="M12 21c3.5 0 6-2.5 6-6 0-3-2-5-4-7.5-.6 2-1.7 3.2-3 4.2.2-2.7-.8-5-3-7.7C7.5 7 6 10 6 14.5 6 18.3 8.5 21 12 21Z" />
<path d="M12 18c1.5 0 2.5-1 2.5-2.5 0-1.2-.7-2.1-1.5-3.1-.3.8-.8 1.4-1.5 1.9.1-1.1-.4-2-1.2-3.1-.5 1.2-.8 2.4-.8 3.8 0 1.8 1 3 2.5 3Z" />
</g>
<text x="81" y="106" text-anchor="middle" font-family="Arial, sans-serif" font-size="13" fill="#3f352b">Hot</text>
</g>
<g transform="translate(654,632)">
<rect x="0" y="0" width="162" height="126" rx="18" fill="#fffdf9" stroke="#e5ded3"/>
<circle cx="81" cy="50" r="32" fill="#fbf5ea" stroke="#e3d4bf"/>
<g transform="translate(57,26) scale(2)" fill="none" stroke="#9a7442" stroke-width="1.5" stroke-linecap="round" stroke-linejoin="round">
<path d="M7 5v14" />
<path d="M4.5 7.5h5" />
<path d="M5.5 11h3" />
<path d="M4.5 14.5h5" />
<path d="M15 19c2 0 3.5-1.5 3.5-3.5 0-1.8-1.1-3-2.2-4.4-.4 1.1-1 1.8-1.9 2.4.1-1.6-.5-3-1.8-4.7-.8 1.8-1.1 3.4-1.1 5.4 0 2.3 1.4 4.8 3.5 4.8Z" />
</g>
<text x="81" y="106" text-anchor="middle" font-family="Arial, sans-serif" font-size="13" fill="#3f352b">Temp Contrast</text>
</g>
</svg>